<svg width="1200" height="720" viewBox="0 0 1200 720" xmlns="http://www.w3.org/2000/svg">

<!-- ── HERO TOP ── -->
<rect x="0" y="0" width="1200" height="340" fill="#3d3530"/>
<circle cx="150" cy="170" r="320" fill="#e09773" opacity="0.1"/>
<circle cx="1100" cy="80" r="260" fill="#dbc2e3" opacity="0.07"/>
<circle cx="700" cy="360" r="240" fill="#6b4f3a" opacity="0.35"/>
<line x1="0" y1="85" x2="1200" y2="85" stroke="white" stroke-width="0.3" opacity="0.03"/>
<line x1="0" y1="170" x2="1200" y2="170" stroke="white" stroke-width="0.3" opacity="0.03"/>
<line x1="0" y1="255" x2="1200" y2="255" stroke="white" stroke-width="0.3" opacity="0.03"/>
<line x1="400" y1="0" x2="400" y2="340" stroke="white" stroke-width="0.3" opacity="0.03"/>
<line x1="800" y1="0" x2="800" y2="340" stroke="white" stroke-width="0.3" opacity="0.03"/>

<!-- Left accent bar full height -->
<rect x="0" y="0" width="6" height="720" fill="#e09773"/>

<!-- AMX logo box -->
<rect x="60" y="108" width="62" height="62" rx="13" fill="#e09773"/>
<text x="91" y="150" text-anchor="middle" font-family="Georgia, serif" font-size="26" font-weight="700" fill="#3d3530">A</text>

<!-- Eyebrow -->
<text x="142" y="120" font-family="sans-serif" font-size="11" font-weight="600" fill="#e09773" letter-spacing="3">AMX COMPANIES · PEOPLE OPERATIONS</text>

<!-- Main headline -->
<text x="142" y="185" font-family="Georgia, serif" font-size="58" font-weight="700" fill="white">Where </text>
<text x="342" y="185" font-family="Georgia, serif" font-size="58" font-weight="700" font-style="italic" fill="#ead9c8">People</text>
<text x="568" y="185" font-family="Georgia, serif" font-size="58" font-weight="700" fill="white"> Come First.</text>

<!-- Sub -->
<text x="142" y="222" font-family="sans-serif" font-size="15" fill="rgba(255,255,255,0.5)">Benefits · 401(k) · HR Forms · Recognition · Events · Well-Being · Learning</text>

<!-- Click anywhere prompt (no fake button) -->
<text x="142" y="272" font-family="sans-serif" font-size="13" font-weight="500" fill="rgba(255,255,255,0.35)">Click anywhere to enter →</text>

<!-- Right decorative circles -->
<circle cx="980" cy="130" r="70" fill="rgba(255,255,255,0.03)" stroke="rgba(255,255,255,0.07)" stroke-width="1"/>
<circle cx="980" cy="130" r="46" fill="rgba(255,255,255,0.03)" stroke="rgba(255,255,255,0.07)" stroke-width="1"/>
<circle cx="980" cy="130" r="22" fill="#e09773" opacity="0.18"/>
<circle cx="1110" cy="230" r="72" fill="rgba(255,255,255,0.02)" stroke="rgba(255,255,255,0.06)" stroke-width="1"/>
<circle cx="1110" cy="230" r="48" fill="rgba(255,255,255,0.02)" stroke="rgba(255,255,255,0.06)" stroke-width="1"/>
<circle cx="1110" cy="230" r="24" fill="#dbc2e3" opacity="0.18"/>
<circle cx="860" cy="240" r="36" fill="rgba(255,255,255,0.02)" stroke="rgba(255,255,255,0.05)" stroke-width="1"/>
<circle cx="860" cy="240" r="18" fill="#ead9c8" opacity="0.14"/>
<circle cx="1052" cy="180" r="5" fill="#e09773" opacity="0.35"/>
<circle cx="1076" cy="160" r="3" fill="#dbc2e3" opacity="0.35"/>
<circle cx="1096" cy="190" r="5" fill="#ead9c8" opacity="0.25"/>
<circle cx="1064" cy="202" r="3" fill="#e5eac9" opacity="0.3"/>

<!-- Transition -->
<rect x="0" y="318" width="1200" height="22" fill="#3d3530" opacity="0.5"/>
<rect x="0" y="332" width="1200" height="16" fill="#f0dbd3"/>

<!-- ── CPO NOTE BOTTOM ── -->
<rect x="0" y="340" width="1200" height="380" fill="#f0dbd3"/>
<circle cx="1200" cy="720" r="300" fill="#dbc2e3" opacity="0.15"/>
<circle cx="0" cy="720" r="200" fill="#ead9c8" opacity="0.2"/>
<circle cx="600" cy="520" r="300" fill="#f3ecdd" opacity="0.4"/>

<!-- Dot grids -->
<circle cx="1100" cy="368" r="3" fill="#b57558" opacity="0.2"/>
<circle cx="1124" cy="368" r="3" fill="#b57558" opacity="0.18"/>
<circle cx="1148" cy="368" r="3" fill="#b57558" opacity="0.15"/>
<circle cx="1100" cy="392" r="3" fill="#b57558" opacity="0.14"/>
<circle cx="1124" cy="392" r="3" fill="#b57558" opacity="0.12"/>
<circle cx="52" cy="648" r="3" fill="#9a7aa1" opacity="0.18"/>
<circle cx="76" cy="648" r="3" fill="#9a7aa1" opacity="0.18"/>
<circle cx="52" cy="672" r="3" fill="#9a7aa1" opacity="0.13"/>
<circle cx="76" cy="672" r="3" fill="#9a7aa1" opacity="0.13"/>

<!-- Large decorative quote mark -->
<text x="76" y="510" font-family="Georgia, serif" font-size="180" fill="#e09773" opacity="0.1">"</text>

<!-- Eyebrow -->
<text x="120" y="380" font-family="sans-serif" font-size="11" font-weight="600" fill="#b57558" letter-spacing="3">A NOTE FROM YOUR CHIEF PEOPLE OFFICER</text>
<line x1="120" y1="392" x2="500" y2="392" stroke="#dac8b3" stroke-width="0.8"/>

<!-- Quote text -->
<text x="120" y="432" font-family="Georgia, serif" font-size="20" font-style="italic" fill="#3d3530">"This portal exists because you do. Every resource, every form, every tool on this page</text>
<text x="120" y="462" font-family="Georgia, serif" font-size="20" font-style="italic" fill="#3d3530">was built with one person in mind — you. At AMX, our people aren't a department.</text>
<text x="120" y="508" font-family="Georgia, serif" font-size="20" font-style="italic" fill="#3d3530">They're the whole point. I built this space so you always know where to go,</text>
<text x="120" y="538" font-family="Georgia, serif" font-size="20" font-style="italic" fill="#6b4f3a">what you're worth, and that someone in this building is fighting for your experience</text>
<text x="120" y="568" font-family="Georgia, serif" font-size="20" font-style="italic" fill="#6b4f3a">every single day.</text>

<!-- Welcome home -->
<text x="120" y="612" font-family="Georgia, serif" font-size="22" font-weight="700" font-style="italic" fill="#e09773">Welcome home."</text>

<!-- Closing quote -->
<text x="1100" y="638" font-family="Georgia, serif" font-size="80" fill="#e09773" opacity="0.18">"</text>

<!-- Signature -->
<line x1="120" y1="636" x2="560" y2="636" stroke="#dac8b3" stroke-width="0.5"/>
<circle cx="148" cy="673" r="26" fill="#e09773"/>
<text x="148" y="680" text-anchor="middle" font-family="Georgia, serif" font-size="16" font-weight="700" fill="#3d3530">NE</text>
<text x="186" y="666" font-family="Georgia, serif" font-size="17" font-weight="700" fill="#3d3530">Nina Eiland</text>
<text x="186" y="688" font-family="sans-serif" font-size="12" fill="#9c8c82">Chief People Officer · AMX Companies · 334-814-5024</text>

</svg>
